<?xml version="1.0" encoding="UTF-8"?>
<svg version="1.1" xmlns="http://www.w3.org/2000/svg" width="100" height="90">
<path d="M0 0 C6.37684478 3.89959467 11.62137057 8.85491483 14.3984375 15.90625 C16.51575636 24.7740796 16.44737686 34.5680387 11.66015625 42.515625 C5.30107227 51.16024772 -3.22511003 57.49274 -13.9375 59.6875 C-15.59568545 59.78175713 -17.25712255 59.8254642 -18.91796875 59.83276367 C-19.90579346 59.83914352 -20.89361816 59.84552338 -21.91137695 59.85209656 C-22.97187256 59.85320938 -24.03236816 59.8543222 -25.125 59.85546875 C-26.21965576 59.85879715 -27.31431152 59.86212555 -28.44213867 59.86555481 C-30.75536682 59.87061484 -33.06860226 59.87296342 -35.38183594 59.87280273 C-38.92394988 59.87499163 -42.46575356 59.89316394 -46.0078125 59.91210938 C-48.25520727 59.91504297 -50.50260351 59.91702799 -52.75 59.91796875 C-53.81049561 59.92515427 -54.87099121 59.93233978 -55.96362305 59.93974304 C-56.95144775 59.93666641 -57.93927246 59.93358978 -58.95703125 59.93041992 C-59.82432861 59.93184494 -60.69162598 59.93326996 -61.58520508 59.93473816 C-64.11785563 59.66854371 -65.75199006 58.96203192 -67.9375 57.6875 C-68.0625 54.8125 -68.0625 54.8125 -67.9375 51.6875 C-65.46745212 49.21745212 -64.7692161 49.43724656 -61.37109375 49.43212891 C-60.42250488 49.42516998 -59.47391602 49.41821106 -58.49658203 49.41104126 C-57.46645996 49.41203827 -56.43633789 49.41303528 -55.375 49.4140625 C-53.19400545 49.3937554 -51.01301592 49.37290431 -48.83203125 49.3515625 C-45.39367467 49.3290544 -41.95551645 49.31253086 -38.51708984 49.30664062 C-35.19852723 49.29705356 -31.88085975 49.26317953 -28.5625 49.2265625 C-27.54857178 49.23160797 -26.53464355 49.23665344 -25.48999023 49.24185181 C-17.40294744 49.13170624 -10.15038259 47.32275375 -3.5625 42.4375 C1.22047209 37.42676734 3.2819162 33.04118161 3.5 26.0625 C3.25353799 20.11455007 1.69275462 16.58946373 -2.1875 12.0625 C-9.52061538 5.7293549 -17.31304181 3.20834154 -27.0234375 3.35546875 C-31.11409631 3.82156258 -34.64480816 5.1387522 -38.4296875 6.71484375 C-40.92819118 7.68388957 -43.30069123 8.23858094 -45.9375 8.6875 C-48.27208635 5.18562047 -48.61010727 3.80721953 -47.9375 -0.3125 C-35.2285763 -11.47155495 -13.64875509 -6.96270952 0 0 Z " fill="#F8D506" transform="translate(74.9375,6.3125)"/>
<path d="M0 0 C3.63 0 7.26 0 11 0 C11.05376941 3.29188269 11.09356106 6.58289426 11.125 9.875 C11.14175781 10.81214844 11.15851562 11.74929687 11.17578125 12.71484375 C11.18222656 13.61074219 11.18867188 14.50664063 11.1953125 15.4296875 C11.20578613 16.25710449 11.21625977 17.08452148 11.22705078 17.93701172 C11 20 11 20 9 22 C5.5 22.25 5.5 22.25 2 22 C0 20 0 20 -0.22705078 17.93701172 C-0.21657715 17.10959473 -0.20610352 16.28217773 -0.1953125 15.4296875 C-0.18886719 14.53378906 -0.18242187 13.63789062 -0.17578125 12.71484375 C-0.15902344 11.77769531 -0.14226563 10.84054688 -0.125 9.875 C-0.11597656 8.93011719 -0.10695313 7.98523438 -0.09765625 7.01171875 C-0.07404668 4.67437173 -0.03817494 2.33715451 0 0 Z " fill="#F9D606" transform="translate(11,68)"/>
<path d="M0 0 C6.46153846 0.46153846 6.46153846 0.46153846 9 3 C9.375 5.9375 9.375 5.9375 9 9 C7.375 10.9375 7.375 10.9375 5 12 C1.46284464 11.92781316 -0.32137805 11.5937942 -3 9.25 C-4 7 -4 7 -3.3125 4.375 C-2 2 -2 2 0 0 Z " fill="#F8D507" transform="translate(13,42)"/>
</svg>
